<?xml version="1.0" standalone="no"?>
 <!DOCTYPE svg PUBLIC "-//W3C//DTD SVG 1.1//EN" 
 "http://www.w3.org/Graphics/SVG/1.1/DTD/svg11.dtd"> 
<svg xmlns="http://www.w3.org/2000/svg" version="1.1" 
    width="3.33248cm" height="2.85242cm" viewBox="0 0 13120 11230 ">
<title>SVG Picture created as EasyIOT-F_Cu.svg date 2015/11/09 23:55:33 </title>
  <desc>Picture generated by PCBNEW </desc>
<g style="fill:#000000; fill-opacity:1;stroke:#000000; stroke-opacity:1;
stroke-linecap:round; stroke-linejoin:round; "
 transform="translate(0 0) scale(1 1)">
</g>
<g style="fill:#000000; fill-opacity:0.0; 
stroke:#000000; stroke-width:-0.000393701; stroke-opacity:1; 
stroke-linecap:round; stroke-linejoin:round;">
</g>
<g style="fill:#000000; fill-opacity:0.0; 
stroke:#000000; stroke-width:98.4252; stroke-opacity:1; 
stroke-linecap:round; stroke-linejoin:round;">
<path d="M1350 8617
L1613 8617
" />
<path d="M1538 8617
L1575 8598
L1594 8579
L1613 8542
L1613 8504
" />
<path d="M1350 8317
L1369 8354
L1388 8373
L1425 8392
L1538 8392
L1575 8373
L1594 8354
L1613 8317
L1613 8260
L1594 8223
L1575 8204
L1538 8185
L1425 8185
L1388 8204
L1369 8223
L1350 8260
L1350 8317
" />
<path d="M1350 8017
L1744 8017
" />
<path d="M1350 7848
L1556 7848
L1594 7867
L1613 7904
L1613 7960
L1594 7998
L1575 8017
" />
<path d="M1350 7661
L1613 7661
" />
<path d="M1744 7661
L1725 7679
L1706 7661
L1725 7642
L1744 7661
L1706 7661
" />
<path d="M1613 7529
L1613 7379
" />
<path d="M1744 7473
L1406 7473
L1369 7454
L1350 7417
L1350 7379
" />
<path d="M1613 7079
L1294 7079
L1257 7098
L1238 7117
L1219 7154
L1219 7211
L1238 7248
" />
<path d="M1369 7079
L1350 7117
L1350 7192
L1369 7229
L1388 7248
L1425 7267
L1538 7267
L1575 7248
L1594 7229
L1613 7192
L1613 7117
L1594 7079
" />
<path d="M1388 6892
L1369 6873
L1350 6892
L1369 6911
L1388 6892
L1350 6892
" />
<path d="M1350 6704
L1613 6704
" />
<path d="M1744 6704
L1725 6723
L1706 6704
L1725 6686
L1744 6704
L1706 6704
" />
<path d="M1613 6517
L1350 6517
" />
<path d="M1575 6517
L1594 6498
L1613 6461
L1613 6404
L1594 6367
L1556 6348
L1350 6348
" />
</g>
<g style="fill:#000000; fill-opacity:1.0; 
stroke:#000000; stroke-width:0; stroke-opacity:1; 
stroke-linecap:round; stroke-linejoin:round;">
<circle cx="6668.85" cy="2442.91" r="295.5" /> 
</g>
<g style="fill:#000000; fill-opacity:1.0; 
stroke:#000000; stroke-width:39.3701; stroke-opacity:1; 
stroke-linecap:round; stroke-linejoin:round;">
</g>
<g style="fill:#000000; fill-opacity:1.0; 
stroke:#000000; stroke-width:0; stroke-opacity:1; 
stroke-linecap:round; stroke-linejoin:round;">
<circle cx="5668.85" cy="2442.91" r="295.5" /> 
</g>
<g style="fill:#000000; fill-opacity:1.0; 
stroke:#000000; stroke-width:39.3701; stroke-opacity:1; 
stroke-linecap:round; stroke-linejoin:round;">
</g>
<g style="fill:#000000; fill-opacity:1.0; 
stroke:#000000; stroke-width:0; stroke-opacity:1; 
stroke-linecap:round; stroke-linejoin:round;">
<polyline style="fill-rule:evenodd;"
points="2414,3812
1922,3812
1922,4206
2414,4206
2414,3812
" /> 
<polyline style="fill-rule:evenodd;"
points="2414,4599
1922,4599
1922,4993
2414,4993
2414,4599
" /> 
<polyline style="fill-rule:evenodd;"
points="9419,9728
9419,9236
9025,9236
9025,9728
9419,9728
" /> 
<polyline style="fill-rule:evenodd;"
points="8631,9728
8631,9236
8238,9236
8238,9728
8631,9728
" /> 
<polyline style="fill-rule:evenodd;"
points="6164,6173
5692,6173
5692,6645
6164,6645
6164,6173
" /> 
<polyline style="fill-rule:evenodd;"
points="6164,6999
5692,6999
5692,7471
6164,7471
6164,6999
" /> 
<polyline style="fill-rule:evenodd;"
points="4522,8373
4679,8373
4679,7841
4522,7841
4522,8373
" /> 
<polyline style="fill-rule:evenodd;"
points="4266,8373
4423,8373
4423,7841
4266,7841
4266,8373
" /> 
<polyline style="fill-rule:evenodd;"
points="4010,8373
4167,8373
4167,7841
4010,7841
4010,8373
" /> 
<polyline style="fill-rule:evenodd;"
points="3754,8373
3912,8373
3912,7841
3754,7841
3754,8373
" /> 
<polyline style="fill-rule:evenodd;"
points="3498,8373
3656,8373
3656,7841
3498,7841
3498,8373
" /> 
</g>
<g style="fill:#000000; fill-opacity:1.0; 
stroke:#000000; stroke-width:374.016; stroke-opacity:1; 
stroke-linecap:round; stroke-linejoin:round;">
</g>
<g style="fill:#000000; fill-opacity:0.0; 
stroke:#000000; stroke-width:374.016; stroke-opacity:1; 
stroke-linecap:round; stroke-linejoin:round;">
<path d="M5132 8107
L5014 8107
" />
<path d="M3164 8107
L3045 8107
" />
</g>
<g style="fill:#000000; fill-opacity:0.0; 
stroke:#000000; stroke-width:393.701; stroke-opacity:1; 
stroke-linecap:round; stroke-linejoin:round;">
<path d="M5467 9279
L5467 9062
" />
<path d="M2711 9279
L2711 9062
" />
</g>
<g style="fill:#000000; fill-opacity:0.0; 
stroke:#000000; stroke-width:0; stroke-opacity:1; 
stroke-linecap:round; stroke-linejoin:round;">
</g>
<g style="fill:#000000; fill-opacity:1.0; 
stroke:#000000; stroke-width:0; stroke-opacity:1; 
stroke-linecap:round; stroke-linejoin:round;">
<polyline style="fill-rule:evenodd;"
points="2728,2262
2048,2262
2048,3062
2728,3062
2728,2262
" /> 
</g>
<g style="fill:#000000; fill-opacity:1.0; 
stroke:#000000; stroke-width:680; stroke-opacity:1; 
stroke-linecap:round; stroke-linejoin:round;">
</g>
<g style="fill:#000000; fill-opacity:0.0; 
stroke:#000000; stroke-width:680; stroke-opacity:1; 
stroke-linecap:round; stroke-linejoin:round;">
<path d="M3388 2602
L3388 2722
" />
<path d="M4388 2602
L4388 2722
" />
</g>
<g style="fill:#000000; fill-opacity:0.0; 
stroke:#000000; stroke-width:0; stroke-opacity:1; 
stroke-linecap:round; stroke-linejoin:round;">
</g>
<g style="fill:#000000; fill-opacity:1.0; 
stroke:#000000; stroke-width:0; stroke-opacity:1; 
stroke-linecap:round; stroke-linejoin:round;">
<polyline style="fill-rule:evenodd;"
points="10708,8502
10708,9182
11508,9182
11508,8502
10708,8502
" /> 
</g>
<g style="fill:#000000; fill-opacity:1.0; 
stroke:#000000; stroke-width:680; stroke-opacity:1; 
stroke-linecap:round; stroke-linejoin:round;">
</g>
<g style="fill:#000000; fill-opacity:0.0; 
stroke:#000000; stroke-width:680; stroke-opacity:1; 
stroke-linecap:round; stroke-linejoin:round;">
<path d="M11048 7842
L11168 7842
" />
<path d="M11048 6842
L11168 6842
" />
<path d="M11048 5842
L11168 5842
" />
<path d="M11048 4842
L11168 4842
" />
<path d="M11048 3842
L11168 3842
" />
<path d="M11048 2842
L11168 2842
" />
</g>
<g style="fill:#000000; fill-opacity:0.0; 
stroke:#000000; stroke-width:0; stroke-opacity:1; 
stroke-linecap:round; stroke-linejoin:round;">
</g>
<g style="fill:#000000; fill-opacity:1.0; 
stroke:#000000; stroke-width:0; stroke-opacity:1; 
stroke-linecap:round; stroke-linejoin:round;">
<polyline style="fill-rule:evenodd;"
points="6243,3541
5574,3541
5574,4329
6243,4329
6243,3541
" /> 
<polyline style="fill-rule:evenodd;"
points="6243,5116
5574,5116
5574,5904
6243,5904
6243,5116
" /> 
<polyline style="fill-rule:evenodd;"
points="7363,7041
6694,7041
6694,7829
7363,7829
7363,7041
" /> 
<polyline style="fill-rule:evenodd;"
points="7363,8616
6694,8616
6694,9404
7363,9404
7363,8616
" /> 
<polyline style="fill-rule:evenodd;"
points="7667,3548
7667,4217
8455,4217
8455,3548
7667,3548
" /> 
<polyline style="fill-rule:evenodd;"
points="9242,3548
9242,4217
10029,4217
10029,3548
9242,3548
" /> 
<polyline style="fill-rule:evenodd;"
points="10009,3177
10009,2508
9222,2508
9222,3177
10009,3177
" /> 
<polyline style="fill-rule:evenodd;"
points="8435,3177
8435,2508
7647,2508
7647,3177
8435,3177
" /> 
<polyline style="fill-rule:evenodd;"
points="3408,6322
3408,7122
4848,7122
4848,6322
3408,6322
" /> 
<polyline style="fill-rule:evenodd;"
points="3928,3722
3928,4522
4328,4522
4328,3722
3928,3722
" /> 
<polyline style="fill-rule:evenodd;"
points="4828,3722
4828,4522
5228,4522
5228,3722
4828,3722
" /> 
<polyline style="fill-rule:evenodd;"
points="3028,3722
3028,4522
3428,4522
3428,3722
3028,3722
" /> 
<polyline style="fill-rule:evenodd;"
points="9668,8542
9668,7862
8988,7862
8988,8542
9668,8542
" /> 
</g>
<g style="fill:#000000; fill-opacity:1.0; 
stroke:#000000; stroke-width:680; stroke-opacity:1; 
stroke-linecap:round; stroke-linejoin:round;">
</g>
<g style="fill:#000000; fill-opacity:0.0; 
stroke:#000000; stroke-width:680; stroke-opacity:1; 
stroke-linecap:round; stroke-linejoin:round;">
<path d="M8328 8202
L8328 8202
" />
<path d="M9328 7202
L9328 7202
" />
<path d="M8328 7202
L8328 7202
" />
<path d="M9328 6202
L9328 6202
" />
<path d="M8328 6202
L8328 6202
" />
<path d="M9328 5202
L9328 5202
" />
<path d="M8328 5202
L8328 5202
" />
</g>
<g style="fill:#000000; fill-opacity:1.0; 
stroke:#000000; stroke-width:0; stroke-opacity:1; 
stroke-linecap:round; stroke-linejoin:round;">
<circle cx="7328.85" cy="5722.91" r="255.906" /> 
</g>
<g style="fill:#000000; fill-opacity:1.0; 
stroke:#000000; stroke-width:39.3701; stroke-opacity:1; 
stroke-linecap:round; stroke-linejoin:round;">
</g>
<g style="fill:#000000; fill-opacity:1.0; 
stroke:#000000; stroke-width:0; stroke-opacity:1; 
stroke-linecap:round; stroke-linejoin:round;">
<circle cx="2108.85" cy="5642.91" r="255.906" /> 
</g>
<g style="fill:#000000; fill-opacity:1.0; 
stroke:#000000; stroke-width:39.3701; stroke-opacity:1; 
stroke-linecap:round; stroke-linejoin:round;">
</g>
<g style="fill:#000000; fill-opacity:1.0; 
stroke:#000000; stroke-width:133.858; stroke-opacity:1; 
stroke-linecap:round; stroke-linejoin:round;">
</g>
<g style="fill:#000000; fill-opacity:0.0; 
stroke:#000000; stroke-width:133.858; stroke-opacity:1; 
stroke-linecap:round; stroke-linejoin:round;">
<path d="M5928 7235
L6055 7235
" />
<path d="M6055 7235
L6568 6722
" />
<path d="M6568 6722
L6568 2542
" />
<path d="M6568 2542
L6668 2442
" />
<path d="M9616 2842
L9616 2290
" />
<path d="M7188 1922
L6668 2442
" />
<path d="M9248 1922
L7188 1922
" />
<path d="M9616 2290
L9248 1922
" />
<path d="M4388 2662
L4388 2382
" />
<path d="M4388 2382
L4848 1922
" />
<path d="M4848 1922
L6148 1922
" />
<path d="M6148 1922
L6668 2442
" />
<path d="M4568 2482
L4388 2662
" />
<path d="M8435 9482
L8435 8309
" />
<path d="M8435 8309
L8328 8202
" />
<path d="M8328 8202
L5168 8202
" />
<path d="M5168 8202
L5073 8107
" />
<path d="M9616 2842
L9616 2550
" />
<path d="M11108 2842
L9616 2842
" />
<path d="M10888 3062
L11108 2842
" />
<path d="M2168 4796
L2555 4796
" />
<path d="M2555 4796
L3228 4122
" />
<path d="M5928 7235
L5928 7472
" />
<path d="M5928 7472
L5293 8107
" />
<path d="M5293 8107
L5073 8107
" />
<path d="M4488 2562
L4388 2662
" />
<path d="M3228 4122
L3228 7983
" />
<path d="M3228 7983
L3104 8107
" />
<path d="M5073 8107
L5293 8107
" />
<path d="M5293 8107
L5467 8281
" />
<path d="M5467 8281
L5467 9170
" />
<path d="M3577 8107
L3104 8107
" />
<path d="M3104 8107
L2711 8501
" />
<path d="M2711 8501
L2711 9170
" />
<path d="M6648 2502
L6668 2482
" />
<path d="M5908 3935
L5908 3122
" />
<path d="M5668 2882
L5668 2442
" />
<path d="M5908 3122
L5668 2882
" />
<path d="M5668 2482
L5668 2422
" />
<path d="M5908 3935
L5908 3602
" />
<path d="M5028 4122
L5721 4122
" />
<path d="M5721 4122
L5908 3935
" />
<path d="M5028 4122
L5028 3562
" />
<path d="M4008 3282
L3388 2662
" />
<path d="M4748 3282
L4008 3282
" />
<path d="M5028 3562
L4748 3282
" />
<path d="M4601 8107
L4601 7770
" />
<path d="M5028 7342
L5028 4122
" />
<path d="M4601 7770
L5028 7342
" />
</g>
<g style="fill:#000000; fill-opacity:0.0; 
stroke:#000000; stroke-width:118.11; stroke-opacity:1; 
stroke-linecap:round; stroke-linejoin:round;">
<path d="M7028 9010
L7021 9010
" />
<path d="M7021 9010
L6248 9782
" />
<path d="M1928 5822
L2108 5642
" />
<path d="M1928 9722
L1928 5822
" />
<path d="M1988 9782
L1928 9722
" />
<path d="M6248 9782
L1988 9782
" />
<path d="M9222 9482
L9222 9689
" />
<path d="M9222 9689
L8988 9922
" />
<path d="M7941 9922
L7028 9010
" />
<path d="M8988 9922
L7941 9922
" />
<path d="M9328 5202
L8808 5722
" />
<path d="M7828 5722
L7328 5722
" />
<path d="M8808 5722
L7828 5722
" />
<path d="M1882 4009
L2168 4009
" />
<path d="M1588 4302
L1882 4009
" />
<path d="M1588 5122
L1588 4302
" />
<path d="M2108 5642
L1588 5122
" />
</g>
<g style="fill:#000000; fill-opacity:0.0; 
stroke:#000000; stroke-width:133.858; stroke-opacity:1; 
stroke-linecap:round; stroke-linejoin:round;">
<path d="M11108 8842
L10828 8842
" />
<path d="M10828 8842
L10188 9482
" />
<path d="M10188 9482
L9222 9482
" />
<path d="M2388 2662
L2388 3789
" />
<path d="M2388 3789
L2168 4009
" />
<path d="M4128 4122
L4128 3742
" />
<path d="M4128 3742
L3688 3302
" />
<path d="M3688 3302
L3028 3302
" />
<path d="M3028 3302
L2388 2662
" />
<path d="M5908 5510
L5908 6389
" />
<path d="M5908 6389
L5928 6409
" />
<path d="M11108 7842
L9688 7842
" />
<path d="M9688 7842
L9328 8202
" />
</g>
<g style="fill:#000000; fill-opacity:0.0; 
stroke:#000000; stroke-width:118.11; stroke-opacity:1; 
stroke-linecap:round; stroke-linejoin:round;">
<path d="M11108 6842
L10668 6842
" />
<path d="M9728 4542
L8328 4542
" />
<path d="M9908 4722
L9728 4542
" />
<path d="M9908 6082
L9908 4722
" />
<path d="M10668 6842
L9908 6082
" />
</g>
<g style="fill:#000000; fill-opacity:0.0; 
stroke:#000000; stroke-width:133.858; stroke-opacity:1; 
stroke-linecap:round; stroke-linejoin:round;">
<path d="M8328 5202
L8328 4542
" />
<path d="M8328 4542
L8328 4150
" />
<path d="M8328 4150
L8061 3882
" />
<path d="M8041 2842
L8041 3862
" />
<path d="M8041 3862
L8061 3882
" />
<path d="M11108 5842
L10288 5842
" />
<path d="M10168 4415
L9636 3882
" />
<path d="M10168 5722
L10168 4415
" />
<path d="M10288 5842
L10168 5722
" />
<path d="M8328 7202
L8328 7162
" />
<path d="M8328 7162
L8784 6707
" />
<path d="M8784 6707
L9833 6707
" />
<path d="M9833 6707
L10468 7342
" />
<path d="M10468 7342
L11488 7342
" />
<path d="M11488 7342
L11768 7062
" />
<path d="M11768 7062
L11768 5502
" />
<path d="M11768 5502
L11108 4842
" />
<path d="M11108 3842
L10848 3842
" />
<path d="M10848 3842
L10388 3382
" />
<path d="M6988 6202
L8328 6202
" />
<path d="M6828 6042
L6988 6202
" />
<path d="M6828 5402
L6828 6042
" />
<path d="M7188 5042
L6828 5402
" />
<path d="M7188 2542
L7188 5042
" />
<path d="M7488 2242
L7188 2542
" />
<path d="M8628 2242
L7488 2242
" />
<path d="M8808 2422
L8628 2242
" />
<path d="M8808 3162
L8808 2422
" />
<path d="M9028 3382
L8808 3162
" />
<path d="M10388 3382
L9028 3382
" />
<path d="M11108 3842
L11008 3842
" />
<path d="M11108 3842
L10868 3842
" />
<path d="M9328 7202
L9288 7202
" />
<path d="M9288 7202
L8788 7702
" />
<path d="M8788 7702
L7296 7702
" />
<path d="M7296 7702
L7028 7435
" />
</g>
<g style="fill:#000000; fill-opacity:1.0; 
stroke:#000000; stroke-width:100; stroke-opacity:1; 
stroke-linecap:round; stroke-linejoin:round;">
<polyline style="fill-rule:evenodd;"
points="1439,1752
1470,3984
1664,3790
1673,3784
1685,3719
1740,3634
1823,3577
1922,3557
2071,3557
2071,3317
2048,3317
1956,3300
1871,3245
1814,3162
1793,3062
1793,2262
1811,2170
1866,2085
1949,2028
2048,2008
2728,2008
2821,2025
2906,2080
2963,2163
2966,2180
2971,2172
3163,2045
3388,2000
3614,2045
3806,2172
3887,2294
4033,2131
4241,2031
4247,2030
4338,2077
4338,2612
4330,2612
4330,2712
4338,2712
4338,2720
4438,2720
4438,2712
4916,2712
4973,2805
4901,3011
4972,3058
5252,3338
5321,3441
5330,3484
5336,3449
5391,3364
5475,3306
5574,3286
5591,3286
5591,3254
5444,3107
5376,3004
5355,2900
5206,2752
5123,2551
5123,2520
4973,2520
4916,2612
4438,2612
4438,2077
4530,2030
4536,2031
4743,2131
4897,2302
4973,2520
5123,2520
5123,2334
5206,2134
5359,1980
5559,1897
5776,1897
5977,1980
6131,2133
6166,2218
6191,2157
6286,2130
6598,2442
6286,2754
6191,2728
6168,2662
6131,2751
6058,2824
6132,2898
6201,3001
6225,3122
6225,3286
6243,3286
6336,3304
6421,3359
6478,3442
6498,3541
6498,4329
6480,4421
6426,4506
6342,4564
6243,4584
5574,4584
5481,4566
5476,4563
5466,4615
5411,4700
5345,4745
5345,5009
5391,4938
5475,4881
5574,4861
6243,4861
6336,4879
6421,4933
6478,5017
6498,5116
6498,5904
6480,5996
6426,6081
6404,6096
6419,6173
6419,6645
6402,6738
6347,6823
6344,6825
6376,6858
6414,6950
6414,7123
6352,7185
5978,7185
5978,7178
5878,7178
5878,7185
5505,7185
5442,7123
5442,6950
5480,6858
5513,6825
5458,6745
5437,6645
5437,6173
5448,6119
5396,6086
5345,6012
5345,7342
5321,7464
5252,7567
5123,7696
5123,7732
5192,7674
5353,7729
5481,7843
5553,7990
5503,8057
5123,8057
5123,8049
5023,8049
5023,8057
5015,8057
5015,8157
5023,8157
5023,8482
4954,8541
4884,8516
4862,8551
4778,8608
4679,8628
4522,8628
4471,8618
4423,8628
4266,8628
4215,8618
4167,8628
4010,8628
3959,8618
3912,8628
3754,8628
3712,8620
3705,8623
3679,8623
3667,8612
3661,8610
3576,8556
3538,8499
3538,8560
3475,8623
3448,8623
3357,8585
3289,8518
3223,8541
3154,8482
3154,8157
3054,8157
3054,8482
2986,8541
2825,8485
2697,8372
2624,8225
2674,8157
3054,8157
3154,8157
3162,8157
3162,8057
3154,8057
3154,7732
3054,7732
3054,8057
2674,8057
2624,7990
2697,7843
2825,7729
2986,7674
3054,7732
3154,7732
3223,7674
3289,7697
3357,7630
3448,7591
3475,7591
3538,7654
3538,7716
3571,7664
3655,7607
3666,7604
3679,7591
3705,7591
3713,7595
3754,7587
3912,7587
3963,7596
4010,7587
4167,7587
4218,7596
4266,7587
4349,7587
4376,7546
4545,7377
3408,7377
3316,7360
3231,7305
3174,7222
3153,7122
3153,6322
3171,6230
3226,6145
3309,6088
3408,6068
4711,6068
4711,4744
4651,4705
4594,4622
4579,4547
4566,4615
4511,4700
4428,4757
4328,4777
3928,4777
3836,4760
3751,4705
3694,4622
3678,4547
3678,4572
3640,4664
3570,4734
3478,4772
3341,4772
3278,4710
3278,4172
3178,4172
3178,4710
3116,4772
2979,4772
2887,4734
2816,4664
2778,4572
2778,4235
2841,4172
3178,4172
3278,4172
3286,4172
3286,4072
3278,4072
3278,4065
3178,4065
3178,4072
2841,4072
2778,4010
2778,3673
2816,3581
2844,3553
2804,3527
2705,3428
2705,3789
2681,3910
2669,3928
2669,4206
2652,4298
2597,4383
2570,4402
2626,4458
2664,4550
2664,4684
2602,4746
2218,4746
2218,4738
2118,4738
2118,4746
2110,4746
2110,4846
2118,4846
2118,4854
2218,4854
2218,4846
2602,4846
2664,4909
2664,5043
2626,5135
2556,5205
2464,5243
2424,5243
2537,5355
2614,5541
2614,5743
2537,5929
2395,6071
2237,6137
2237,9473
2310,9473
2264,9329
2264,9220
2661,9220
2661,9228
2761,9228
2761,9220
3158,9220
3158,9329
3112,9473
5066,9473
5020,9329
5020,9220
5417,9220
5417,9228
5517,9228
5517,9220
5914,9220
5914,9329
5867,9473
6120,9473
6439,9155
6439,9012
5914,9012
5914,9120
5517,9120
5517,8681
5417,8681
5417,9120
5020,9120
5020,9012
3158,9012
3158,9120
2761,9120
2761,8681
2661,8681
2661,9120
2264,9120
2264,9012
2317,8845
2430,8711
2592,8631
2661,8681
2761,8681
2830,8631
2991,8711
3104,8845
3158,9012
5020,9012
5073,8845
5186,8711
5348,8631
5417,8681
5517,8681
5586,8631
5747,8711
5860,8845
5914,9012
6439,9012
6439,8616
6456,8523
6511,8438
6595,8381
6694,8361
7363,8361
7456,8379
7541,8433
7598,8517
7618,8616
7618,9162
8019,9564
8050,9532
8385,9532
8385,9540
8485,9540
8485,9532
8493,9532
8493,9432
8485,9432
8485,9049
8385,9049
8385,9432
8050,9432
7988,9370
7988,9187
8026,9095
8096,9024
8188,8986
8322,8986
8385,9049
8485,9049
8547,8986
8681,8986
8773,9024
8829,9080
8842,9059
8926,9002
9025,8981
9419,8981
9512,8999
9597,9054
9654,9137
9659,9165
10057,9165
10453,8769
10453,8502
10471,8410
10526,8325
10609,8268
10625,8264
10618,8260
10551,8159
9923,8159
9923,8542
9906,8635
9851,8720
9768,8777
9668,8797
8988,8797
8896,8780
8811,8725
8754,8642
8746,8603
8678,8678
8470,8775
8378,8728
8378,8252
8278,8252
8278,8728
8187,8775
7979,8678
7823,8508
7756,8344
7803,8252
8278,8252
8378,8252
8386,8252
8386,8225
5553,8225
5481,8372
5353,8485
5192,8541
5123,8482
5123,8157
5503,8157
5553,8225
8386,8225
8386,8152
8378,8152
8378,8145
8278,8145
8278,8152
7803,8152
7756,8061
7773,8019
7527,8019
7462,8064
7363,8084
6694,8084
6601,8066
6516,8011
6459,7928
6439,7829
6439,7348
6414,7348
6414,7521
6376,7613
6306,7683
6214,7721
6041,7721
5978,7659
5978,7285
5878,7285
5878,7659
5816,7721
5643,7721
5551,7683
5480,7613
5442,7521
5442,7348
5505,7285
5878,7285
5978,7285
6352,7285
6414,7348
6439,7348
6439,7041
6456,6949
6511,6864
6595,6806
6694,6786
7363,6786
7456,6804
7541,6859
7598,6942
7618,7041
7618,7385
7763,7385
7727,7202
7772,6977
7900,6785
8024,6702
7900,6620
7833,6519
6988,6519
6867,6495
6764,6427
6604,6267
6536,6164
6511,6042
6511,5402
6536,5281
6604,5178
6871,4911
6871,2949
6749,2993
6532,2982
6383,2920
6356,2825
6668,2513
6674,2519
6745,2448
6739,2442
7051,2130
7130,2153
7223,2060
6980,2060
6668,2372
6356,2060
6383,1965
6588,1892
6804,1903
6953,1965
6980,2060
7223,2060
7264,2018
7367,1950
7488,1925
8628,1925
8750,1950
8852,2018
9032,2198
9094,2290
9172,2258
9503,2258
9566,2320
9566,2792
9558,2792
9558,2892
9566,2892
9566,2900
9666,2900
9666,2892
10197,2892
10259,2955
10259,3065
10388,3065
10510,3090
10532,3104
10477,2990
10476,2984
10523,2892
11058,2892
11058,2900
11158,2900
11158,2892
11693,2892
11741,2984
11740,2990
11640,3198
11476,3344
11598,3425
11726,3617
11771,3842
11726,4068
11598,4260
11474,4342
11598,4425
11726,4617
11771,4842
11735,5021
11838,5124
11838,2701
11741,2701
11693,2792
11158,2792
11158,2314
11058,2314
11058,2792
10523,2792
10476,2701
10477,2695
10577,2487
10609,2458
10259,2458
10259,2730
10197,2792
9666,2792
9666,2320
9728,2258
10059,2258
10151,2296
10221,2366
10259,2458
10609,2458
10748,2334
10966,2258
11058,2314
11158,2314
11251,2258
11468,2334
11640,2487
11740,2695
11741,2701
11838,2701
11838,1693
1439,1752
" /> 
</g>
<g style="fill:#FFFFFF; fill-opacity:1.0; 
stroke:#FFFFFF; stroke-width:100; stroke-opacity:1; 
stroke-linecap:round; stroke-linejoin:round;">
</g>
<g style="fill:#FFFFFF; fill-opacity:1.0; 
stroke:#FFFFFF; stroke-width:0; stroke-opacity:1; 
stroke-linecap:round; stroke-linejoin:round;">
<circle cx="7328.85" cy="5722.91" r="196.85" /> 
</g>
<g style="fill:#FFFFFF; fill-opacity:1.0; 
stroke:#FFFFFF; stroke-width:39.3701; stroke-opacity:1; 
stroke-linecap:round; stroke-linejoin:round;">
</g>
<g style="fill:#FFFFFF; fill-opacity:1.0; 
stroke:#FFFFFF; stroke-width:0; stroke-opacity:1; 
stroke-linecap:round; stroke-linejoin:round;">
<circle cx="2108.85" cy="5642.91" r="196.85" /> 
</g>
<g style="fill:#FFFFFF; fill-opacity:1.0; 
stroke:#FFFFFF; stroke-width:39.3701; stroke-opacity:1; 
stroke-linecap:round; stroke-linejoin:round;">
</g>
<g style="fill:#FFFFFF; fill-opacity:1.0; 
stroke:#FFFFFF; stroke-width:0; stroke-opacity:1; 
stroke-linecap:round; stroke-linejoin:round;">
<circle cx="6668.85" cy="2442.91" r="157.5" /> 
</g>
<g style="fill:#FFFFFF; fill-opacity:1.0; 
stroke:#FFFFFF; stroke-width:39.3701; stroke-opacity:1; 
stroke-linecap:round; stroke-linejoin:round;">
</g>
<g style="fill:#FFFFFF; fill-opacity:1.0; 
stroke:#FFFFFF; stroke-width:0; stroke-opacity:1; 
stroke-linecap:round; stroke-linejoin:round;">
<circle cx="5668.85" cy="2442.91" r="157.5" /> 
</g>
<g style="fill:#FFFFFF; fill-opacity:1.0; 
stroke:#FFFFFF; stroke-width:39.3701; stroke-opacity:1; 
stroke-linecap:round; stroke-linejoin:round;">
</g>
<g style="fill:#FFFFFF; fill-opacity:1.0; 
stroke:#FFFFFF; stroke-width:216.535; stroke-opacity:1; 
stroke-linecap:round; stroke-linejoin:round;">
</g>
<g style="fill:#FFFFFF; fill-opacity:0.0; 
stroke:#FFFFFF; stroke-width:216.535; stroke-opacity:1; 
stroke-linecap:round; stroke-linejoin:round;">
<path d="M5132 8107
L5014 8107
" />
<path d="M3164 8107
L3045 8107
" />
</g>
<g style="fill:#FFFFFF; fill-opacity:0.0; 
stroke:#FFFFFF; stroke-width:196.85; stroke-opacity:1; 
stroke-linecap:round; stroke-linejoin:round;">
<path d="M5467 9298
L5467 9042
" />
<path d="M2711 9298
L2711 9042
" />
</g>
<g style="fill:#FFFFFF; fill-opacity:1.0; 
stroke:#FFFFFF; stroke-width:0; stroke-opacity:1; 
stroke-linecap:round; stroke-linejoin:round;">
<circle cx="2388.85" cy="2662.91" r="200" /> 
</g>
<g style="fill:#FFFFFF; fill-opacity:1.0; 
stroke:#FFFFFF; stroke-width:39.3701; stroke-opacity:1; 
stroke-linecap:round; stroke-linejoin:round;">
</g>
<g style="fill:#FFFFFF; fill-opacity:1.0; 
stroke:#FFFFFF; stroke-width:0; stroke-opacity:1; 
stroke-linecap:round; stroke-linejoin:round;">
<circle cx="3388.85" cy="2662.91" r="200" /> 
</g>
<g style="fill:#FFFFFF; fill-opacity:1.0; 
stroke:#FFFFFF; stroke-width:39.3701; stroke-opacity:1; 
stroke-linecap:round; stroke-linejoin:round;">
</g>
<g style="fill:#FFFFFF; fill-opacity:1.0; 
stroke:#FFFFFF; stroke-width:0; stroke-opacity:1; 
stroke-linecap:round; stroke-linejoin:round;">
<circle cx="4388.85" cy="2662.91" r="200" /> 
</g>
<g style="fill:#FFFFFF; fill-opacity:1.0; 
stroke:#FFFFFF; stroke-width:39.3701; stroke-opacity:1; 
stroke-linecap:round; stroke-linejoin:round;">
</g>
<g style="fill:#FFFFFF; fill-opacity:1.0; 
stroke:#FFFFFF; stroke-width:0; stroke-opacity:1; 
stroke-linecap:round; stroke-linejoin:round;">
<circle cx="11108.8" cy="8842.91" r="200" /> 
</g>
<g style="fill:#FFFFFF; fill-opacity:1.0; 
stroke:#FFFFFF; stroke-width:39.3701; stroke-opacity:1; 
stroke-linecap:round; stroke-linejoin:round;">
</g>
<g style="fill:#FFFFFF; fill-opacity:1.0; 
stroke:#FFFFFF; stroke-width:0; stroke-opacity:1; 
stroke-linecap:round; stroke-linejoin:round;">
<circle cx="11108.8" cy="7842.91" r="200" /> 
</g>
<g style="fill:#FFFFFF; fill-opacity:1.0; 
stroke:#FFFFFF; stroke-width:39.3701; stroke-opacity:1; 
stroke-linecap:round; stroke-linejoin:round;">
</g>
<g style="fill:#FFFFFF; fill-opacity:1.0; 
stroke:#FFFFFF; stroke-width:0; stroke-opacity:1; 
stroke-linecap:round; stroke-linejoin:round;">
<circle cx="11108.8" cy="6842.91" r="200" /> 
</g>
<g style="fill:#FFFFFF; fill-opacity:1.0; 
stroke:#FFFFFF; stroke-width:39.3701; stroke-opacity:1; 
stroke-linecap:round; stroke-linejoin:round;">
</g>
<g style="fill:#FFFFFF; fill-opacity:1.0; 
stroke:#FFFFFF; stroke-width:0; stroke-opacity:1; 
stroke-linecap:round; stroke-linejoin:round;">
<circle cx="11108.8" cy="5842.91" r="200" /> 
</g>
<g style="fill:#FFFFFF; fill-opacity:1.0; 
stroke:#FFFFFF; stroke-width:39.3701; stroke-opacity:1; 
stroke-linecap:round; stroke-linejoin:round;">
</g>
<g style="fill:#FFFFFF; fill-opacity:1.0; 
stroke:#FFFFFF; stroke-width:0; stroke-opacity:1; 
stroke-linecap:round; stroke-linejoin:round;">
<circle cx="11108.8" cy="4842.91" r="200" /> 
</g>
<g style="fill:#FFFFFF; fill-opacity:1.0; 
stroke:#FFFFFF; stroke-width:39.3701; stroke-opacity:1; 
stroke-linecap:round; stroke-linejoin:round;">
</g>
<g style="fill:#FFFFFF; fill-opacity:1.0; 
stroke:#FFFFFF; stroke-width:0; stroke-opacity:1; 
stroke-linecap:round; stroke-linejoin:round;">
<circle cx="11108.8" cy="3842.91" r="200" /> 
</g>
<g style="fill:#FFFFFF; fill-opacity:1.0; 
stroke:#FFFFFF; stroke-width:39.3701; stroke-opacity:1; 
stroke-linecap:round; stroke-linejoin:round;">
</g>
<g style="fill:#FFFFFF; fill-opacity:1.0; 
stroke:#FFFFFF; stroke-width:0; stroke-opacity:1; 
stroke-linecap:round; stroke-linejoin:round;">
<circle cx="11108.8" cy="2842.91" r="200" /> 
</g>
<g style="fill:#FFFFFF; fill-opacity:1.0; 
stroke:#FFFFFF; stroke-width:39.3701; stroke-opacity:1; 
stroke-linecap:round; stroke-linejoin:round;">
</g>
<g style="fill:#FFFFFF; fill-opacity:1.0; 
stroke:#FFFFFF; stroke-width:0; stroke-opacity:1; 
stroke-linecap:round; stroke-linejoin:round;">
<circle cx="9328.85" cy="8202.91" r="200" /> 
</g>
<g style="fill:#FFFFFF; fill-opacity:1.0; 
stroke:#FFFFFF; stroke-width:39.3701; stroke-opacity:1; 
stroke-linecap:round; stroke-linejoin:round;">
</g>
<g style="fill:#FFFFFF; fill-opacity:1.0; 
stroke:#FFFFFF; stroke-width:0; stroke-opacity:1; 
stroke-linecap:round; stroke-linejoin:round;">
<circle cx="8328.85" cy="8202.91" r="200" /> 
</g>
<g style="fill:#FFFFFF; fill-opacity:1.0; 
stroke:#FFFFFF; stroke-width:39.3701; stroke-opacity:1; 
stroke-linecap:round; stroke-linejoin:round;">
</g>
<g style="fill:#FFFFFF; fill-opacity:1.0; 
stroke:#FFFFFF; stroke-width:0; stroke-opacity:1; 
stroke-linecap:round; stroke-linejoin:round;">
<circle cx="9328.85" cy="7202.91" r="200" /> 
</g>
<g style="fill:#FFFFFF; fill-opacity:1.0; 
stroke:#FFFFFF; stroke-width:39.3701; stroke-opacity:1; 
stroke-linecap:round; stroke-linejoin:round;">
</g>
<g style="fill:#FFFFFF; fill-opacity:1.0; 
stroke:#FFFFFF; stroke-width:0; stroke-opacity:1; 
stroke-linecap:round; stroke-linejoin:round;">
<circle cx="8328.85" cy="7202.91" r="200" /> 
</g>
<g style="fill:#FFFFFF; fill-opacity:1.0; 
stroke:#FFFFFF; stroke-width:39.3701; stroke-opacity:1; 
stroke-linecap:round; stroke-linejoin:round;">
</g>
<g style="fill:#FFFFFF; fill-opacity:1.0; 
stroke:#FFFFFF; stroke-width:0; stroke-opacity:1; 
stroke-linecap:round; stroke-linejoin:round;">
<circle cx="9328.85" cy="6202.91" r="200" /> 
</g>
<g style="fill:#FFFFFF; fill-opacity:1.0; 
stroke:#FFFFFF; stroke-width:39.3701; stroke-opacity:1; 
stroke-linecap:round; stroke-linejoin:round;">
</g>
<g style="fill:#FFFFFF; fill-opacity:1.0; 
stroke:#FFFFFF; stroke-width:0; stroke-opacity:1; 
stroke-linecap:round; stroke-linejoin:round;">
<circle cx="8328.85" cy="6202.91" r="200" /> 
</g>
<g style="fill:#FFFFFF; fill-opacity:1.0; 
stroke:#FFFFFF; stroke-width:39.3701; stroke-opacity:1; 
stroke-linecap:round; stroke-linejoin:round;">
</g>
<g style="fill:#FFFFFF; fill-opacity:1.0; 
stroke:#FFFFFF; stroke-width:0; stroke-opacity:1; 
stroke-linecap:round; stroke-linejoin:round;">
<circle cx="9328.85" cy="5202.91" r="200" /> 
</g>
<g style="fill:#FFFFFF; fill-opacity:1.0; 
stroke:#FFFFFF; stroke-width:39.3701; stroke-opacity:1; 
stroke-linecap:round; stroke-linejoin:round;">
</g>
<g style="fill:#FFFFFF; fill-opacity:1.0; 
stroke:#FFFFFF; stroke-width:0; stroke-opacity:1; 
stroke-linecap:round; stroke-linejoin:round;">
<circle cx="8328.85" cy="5202.91" r="200" /> 
</g>
<g style="fill:#FFFFFF; fill-opacity:1.0; 
stroke:#FFFFFF; stroke-width:39.3701; stroke-opacity:1; 
stroke-linecap:round; stroke-linejoin:round;">
</g>
<g style="fill:#000000; fill-opacity:1.0; 
stroke:#000000; stroke-width:39.3701; stroke-opacity:1; 
stroke-linecap:round; stroke-linejoin:round;">
</g> 
</svg>
